<svg width="16" height="16" viewBox="0 0 16 16" fill="none" xmlns="http://www.w3.org/2000/svg">
<path fill-rule="evenodd" clip-rule="evenodd" d="M7.64191 1.92732C7.67099 2.05541 7.67456 2.18796 7.6524 2.31743C7.63025 2.44689 7.58281 2.57072 7.51279 2.68184C7.44277 2.79297 7.35155 2.88921 7.24433 2.96508C7.13711 3.04094 7.016 3.09494 6.88791 3.12399C6.76479 3.15199 6.64346 3.18443 6.52391 3.22132C6.39841 3.26011 6.2665 3.27379 6.13571 3.2616C6.00492 3.2494 5.87781 3.21156 5.76165 3.15025C5.64548 3.08893 5.54253 3.00533 5.45867 2.90423C5.37481 2.80312 5.31169 2.68649 5.27291 2.56099C5.23412 2.43549 5.22044 2.30358 5.23263 2.17279C5.24483 2.042 5.28266 1.9149 5.34398 1.79873C5.4053 1.68256 5.4889 1.57961 5.59 1.49575C5.69111 1.4119 5.80774 1.34877 5.93324 1.30999C6.10124 1.25799 6.27168 1.21243 6.44457 1.17332C6.57266 1.14424 6.70521 1.14067 6.83468 1.16283C6.96414 1.18498 7.08797 1.23242 7.19909 1.30244C7.31022 1.37246 7.40646 1.46368 7.48233 1.5709C7.55819 1.67812 7.61219 1.79923 7.64124 1.92732M8.35724 1.92732C8.41606 1.66875 8.57517 1.44413 8.79958 1.30286C9.02399 1.16159 9.29532 1.11523 9.55391 1.17399C12.6719 1.87999 14.9999 4.66666 14.9999 7.99999C14.9999 11.866 11.8659 15 7.99991 15C4.66724 15 1.88057 12.672 1.17324 9.55466C1.11454 9.29598 1.161 9.02458 1.3024 8.80016C1.4438 8.57575 1.66856 8.41669 1.92724 8.35799C2.18591 8.29929 2.45731 8.34575 2.68173 8.48715C2.90615 8.62855 3.0652 8.85331 3.12391 9.11199C3.32289 9.98301 3.75164 10.7848 4.36554 11.4339C4.97944 12.0831 5.75606 12.5559 6.61463 12.8031C7.47319 13.0504 8.38232 13.0631 9.24745 12.8399C10.1126 12.6167 10.9021 12.1657 11.5339 11.5339C12.1656 10.9022 12.6166 10.1127 12.8398 9.24753C13.063 8.38241 13.0503 7.47327 12.803 6.61471C12.5558 5.75615 12.083 4.97952 11.4339 4.36562C10.7847 3.75172 9.98292 3.32298 9.11191 3.12399C8.85334 3.06517 8.62872 2.90606 8.48744 2.68165C8.34617 2.45724 8.29982 2.18591 8.35857 1.92732M4.65324 2.92066C4.8334 3.11511 4.92899 3.37313 4.91899 3.63803C4.90899 3.90292 4.79422 4.15301 4.59991 4.33332C4.5079 4.41904 4.41896 4.50798 4.33324 4.59999C4.24394 4.69629 4.13655 4.77406 4.01719 4.82886C3.89784 4.88366 3.76886 4.91441 3.63762 4.91937C3.50638 4.92432 3.37545 4.90337 3.2523 4.85773C3.12916 4.81208 3.01621 4.74262 2.91991 4.65332C2.8236 4.56402 2.74583 4.45663 2.69103 4.33728C2.63623 4.21792 2.60548 4.08894 2.60053 3.9577C2.59558 3.82646 2.61652 3.69553 2.66217 3.57239C2.70782 3.44924 2.77727 3.33629 2.86657 3.23999C2.98657 3.1111 3.11102 2.98666 3.23991 2.86666C3.3362 2.77735 3.44915 2.70788 3.5723 2.66223C3.69544 2.61657 3.82638 2.59562 3.95762 2.60058C4.08886 2.60553 4.21785 2.63628 4.3372 2.69109C4.45656 2.7459 4.56395 2.82434 4.65324 2.92066ZM7.99991 3.66666C8.26512 3.66666 8.51948 3.77201 8.70701 3.95955C8.89455 4.14709 8.99991 4.40144 8.99991 4.66666V7.58599L10.7066 9.29266C10.8021 9.38486 10.8784 9.49517 10.9308 9.61715C10.9833 9.73912 11.0109 9.87033 11.0122 10.0031C11.0134 10.1359 10.9881 10.2676 10.9379 10.3905C10.8877 10.5134 10.8135 10.6251 10.7196 10.719C10.6258 10.813 10.5142 10.8873 10.3913 10.9376C10.2684 10.988 10.1368 11.0133 10.004 11.0122C9.8712 11.0111 9.73997 10.9836 9.61794 10.9313C9.49591 10.8789 9.38553 10.8028 9.29324 10.7073L7.29324 8.70732C7.20027 8.61447 7.12652 8.50421 7.07619 8.38285C7.02585 8.26148 6.99993 8.13138 6.99991 7.99999V4.66666C6.99991 4.40144 7.10526 4.14709 7.2928 3.95955C7.48034 3.77201 7.73469 3.66666 7.99991 3.66666ZM2.55991 5.27332C2.68548 5.31198 2.8022 5.37499 2.90341 5.45878C3.00461 5.54256 3.08832 5.64547 3.14973 5.76162C3.21115 5.87776 3.24908 6.00487 3.26135 6.13569C3.27362 6.2665 3.25999 6.39845 3.22124 6.52399C3.18452 6.64414 3.15205 6.76555 3.12391 6.88799C3.0652 7.14666 2.90615 7.37142 2.68173 7.51283C2.45731 7.65423 2.18591 7.70069 1.92724 7.64199C1.66856 7.58329 1.4438 7.42423 1.3024 7.19981C1.161 6.9754 1.11454 6.704 1.17324 6.44532C1.21235 6.27199 1.25791 6.10154 1.30991 5.93399C1.34863 5.80848 1.4117 5.69182 1.49551 5.59069C1.57932 5.48956 1.68224 5.40593 1.79838 5.34458C1.91452 5.28322 2.04161 5.24535 2.17239 5.23313C2.30317 5.2209 2.43507 5.23456 2.56057 5.27332" fill="#146B83"/>
</svg>
